<svg xmlns="http://www.w3.org/2000/svg" viewBox="0 0 520 620" role="img" aria-label="Front load dryer">
  <defs>
    <linearGradient id="dryerBody" x1="105" y1="54" x2="428" y2="562" gradientUnits="userSpaceOnUse">
      <stop stop-color="#fbfcff"/>
      <stop offset=".3" stop-color="#d8dee8"/>
      <stop offset=".67" stop-color="#737b88"/>
      <stop offset="1" stop-color="#242a33"/>
    </linearGradient>
    <linearGradient id="dryerDoor" x1="160" y1="184" x2="370" y2="434" gradientUnits="userSpaceOnUse">
      <stop stop-color="#262e38"/>
      <stop offset=".54" stop-color="#111821"/>
      <stop offset="1" stop-color="#030506"/>
    </linearGradient>
    <radialGradient id="dryerGlow" cx="47%" cy="40%" r="66%">
      <stop stop-color="#ffe1b8" stop-opacity=".58"/>
      <stop offset=".36" stop-color="#c6742e" stop-opacity=".21"/>
      <stop offset=".75" stop-color="#1c2027" stop-opacity=".88"/>
      <stop offset="1" stop-color="#050608"/>
    </radialGradient>
    <filter id="softShadow" x="-20%" y="-20%" width="140%" height="150%">
      <feDropShadow dx="0" dy="26" stdDeviation="22" flood-color="#000" flood-opacity=".34"/>
    </filter>
  </defs>
  <path fill="#05070b" fill-opacity=".22" d="M92 570c28 22 88 34 166 34 82 0 146-14 174-37 16-13 6-34-16-32-48 5-99 7-153 7-61 0-113-2-157-6-24-2-32 20-14 34Z"/>
  <g filter="url(#softShadow)">
    <rect x="112" y="42" width="296" height="520" rx="44" fill="url(#dryerBody)"/>
    <rect x="132" y="64" width="256" height="76" rx="20" fill="#f7f9fc" fill-opacity=".5"/>
    <rect x="154" y="86" width="108" height="24" rx="12" fill="#222a35" fill-opacity=".74"/>
    <circle cx="346" cy="98" r="22" fill="#222a35" fill-opacity=".82"/>
    <circle cx="346" cy="98" r="12" fill="#ffb765" fill-opacity=".7"/>
    <circle cx="260" cy="320" r="154" fill="#151c25" fill-opacity=".54"/>
    <circle cx="260" cy="320" r="132" fill="#aeb7c2"/>
    <circle cx="260" cy="320" r="110" fill="url(#dryerDoor)"/>
    <circle cx="260" cy="320" r="89" fill="url(#dryerGlow)"/>
    <path fill="#ffffff" fill-opacity=".2" d="M186 260c38-60 132-72 188-20-40-17-83-18-124-5-30 10-51 24-64 25Z"/>
    <path fill="#ffb765" fill-opacity=".18" d="M178 366c47 38 112 48 170 23-43 56-130 52-170-23Z"/>
    <path fill="#10151d" fill-opacity=".2" d="M158 458h204c17 0 31 14 31 31v24c0 17-14 31-31 31H158c-17 0-31-14-31-31v-24c0-17 14-31 31-31Z"/>
    <rect x="166" y="490" width="188" height="12" rx="6" fill="#ffffff" fill-opacity=".16"/>
  </g>
</svg>
